<svg xmlns="http://www.w3.org/2000/svg" width="488" height="704" fill="none" viewBox="0 0 488 704"><rect width="487.5" height="703.5" x=".25" y=".25" fill="#fff" rx="11.75"/><rect width="487.5" height="703.5" x=".25" y=".25" stroke="#D7D8D9" stroke-width=".5" rx="11.75"/><rect width="328" height="36" x="24" y="24" fill="#F2F3F5" rx="8"/><rect width="327.5" height="35.5" x="24.25" y="24.25" stroke="#000" stroke-linejoin="round" stroke-opacity=".12" stroke-width=".5" rx="7.75"/><path fill="#818C99" d="M41.04 42.012h-2.704l-.014-1.135h2.453c.406 0 .76-.068 1.062-.205.303-.137.537-.332.703-.586.171-.259.257-.566.257-.923 0-.39-.076-.708-.227-.952a1.256 1.256 0 0 0-.681-.542c-.303-.117-.689-.176-1.158-.176h-2.08V47h-1.413V36.336h3.493c.547 0 1.036.056 1.465.168.43.108.794.279 1.092.513.302.23.532.523.688.879.156.356.234.784.234 1.282 0 .44-.112.837-.337 1.194-.224.351-.537.64-.937.864a3.67 3.67 0 0 1-1.392.432l-.505.344ZM40.972 47H37.78l.798-1.15h2.395c.45 0 .83-.078 1.143-.234a1.67 1.67 0 0 0 .725-.66c.166-.288.249-.627.249-1.018 0-.395-.071-.737-.213-1.025a1.467 1.467 0 0 0-.666-.666c-.303-.157-.693-.235-1.172-.235h-2.014l.015-1.135h2.754l.3.41c.512.044.947.19 1.303.44.357.244.628.556.813.937.19.38.286.8.286 1.26 0 .664-.146 1.225-.44 1.684a2.74 2.74 0 0 1-1.222 1.04c-.528.235-1.148.352-1.86.352Zm9.326-3.486h-2.6l-.015-1.084h2.124c.42 0 .77-.042 1.048-.125.283-.083.495-.207.637-.373a.915.915 0 0 0 .212-.616.967.967 0 0 0-.124-.498.906.906 0 0 0-.359-.358 1.77 1.77 0 0 0-.6-.213 4.098 4.098 0 0 0-.828-.073h-1.736V47h-1.355v-7.925h3.09c.504 0 .955.044 1.356.132.405.088.75.222 1.032.403.288.176.508.4.66.674.151.273.227.595.227.967a1.628 1.628 0 0 1-.579 1.252 2.33 2.33 0 0 1-.703.41 3.624 3.624 0 0 1-.96.198l-.527.403Zm0 3.486h-3.09l.673-1.099H50.3c.376 0 .689-.046.938-.139.249-.097.434-.234.556-.41.127-.18.19-.395.19-.644a1.06 1.06 0 0 0-.19-.638 1.115 1.115 0 0 0-.556-.41c-.25-.097-.562-.146-.938-.146h-2.058l.015-1.084h2.57l.491.41c.435.034.803.141 1.106.322.303.18.532.41.689.689.156.273.234.57.234.893 0 .371-.07.698-.212.982-.137.283-.337.52-.601.71a2.932 2.932 0 0 1-.96.425A5.31 5.31 0 0 1 50.3 47Zm8.352.147a3.9 3.9 0 0 1-1.502-.279A3.406 3.406 0 0 1 56 46.07a3.55 3.55 0 0 1-.732-1.216 4.459 4.459 0 0 1-.256-1.538v-.308c0-.644.095-1.218.285-1.72.19-.509.45-.938.777-1.29a3.327 3.327 0 0 1 1.113-.798 3.194 3.194 0 0 1 1.29-.271c.566 0 1.054.097 1.464.293a2.67 2.67 0 0 1 1.018.82c.264.347.46.757.586 1.23.127.47.19.982.19 1.538v.608h-5.918v-1.105h4.563v-.103a3.38 3.38 0 0 0-.22-1.025 1.843 1.843 0 0 0-.585-.82c-.269-.216-.635-.323-1.099-.323a1.845 1.845 0 0 0-1.516.769c-.186.254-.33.564-.432.93a4.712 4.712 0 0 0-.154 1.267v.308c0 .376.051.73.154 1.062.107.327.261.615.461.864.206.25.452.445.74.586.293.142.625.212.996.212.479 0 .884-.097 1.216-.292.332-.196.623-.457.872-.784l.82.652a3.827 3.827 0 0 1-.652.74 3.113 3.113 0 0 1-.974.57c-.38.147-.833.22-1.355.22Zm6.294-8.072H66.3l-.117 2.966c-.03.753-.115 1.402-.257 1.949a5.73 5.73 0 0 1-.542 1.399c-.22.38-.466.7-.74.96a4.839 4.839 0 0 1-.835.651h-.673l.036-1.106.279-.007c.16-.19.317-.386.468-.586a4.08 4.08 0 0 0 .418-.725 4.99 4.99 0 0 0 .315-1.033c.088-.41.144-.91.168-1.502l.125-2.966Zm.337 0h4.768V47h-1.355v-6.672h-3.413v-1.253Zm-2.454 6.812h8.24v3.45h-1.355V47h-5.53v2.336H62.82l.007-3.45Zm11.406-1.033 3.655-5.779h1.362V47h-1.36v-5.779L74.234 47h-1.348v-7.925h1.348v5.779Zm10.622-5.779V47h-1.362v-7.925h1.362Zm2.66 0v1.099h-6.63v-1.099h6.63Zm4.235 8.072a3.9 3.9 0 0 1-1.502-.279 3.406 3.406 0 0 1-1.15-.798 3.55 3.55 0 0 1-.732-1.216 4.459 4.459 0 0 1-.256-1.538v-.308c0-.644.095-1.218.285-1.72.19-.509.45-.938.777-1.29a3.327 3.327 0 0 1 1.113-.798 3.193 3.193 0 0 1 1.289-.271c.566 0 1.055.097 1.465.293a2.67 2.67 0 0 1 1.018.82c.264.347.459.757.586 1.23.127.47.19.982.19 1.538v.608h-5.918v-1.105h4.563v-.103a3.38 3.38 0 0 0-.22-1.025 1.843 1.843 0 0 0-.585-.82c-.269-.216-.635-.323-1.099-.323a1.845 1.845 0 0 0-1.516.769c-.186.254-.33.564-.432.93a4.712 4.712 0 0 0-.154 1.267v.308c0 .376.051.73.154 1.062.107.327.261.615.461.864.205.25.452.445.74.586.293.142.625.212.996.212.478 0 .884-.097 1.216-.292.332-.196.622-.457.871-.784l.82.652a3.79 3.79 0 0 1-.651.74 3.113 3.113 0 0 1-.974.57c-.381.147-.833.22-1.355.22Zm14.162-4.637v1.099h-4.189V42.51h4.189Zm-3.904-3.435V47h-1.355v-7.925h1.355Zm5.003 0V47h-1.363v-7.925h1.363Zm7.055 6.57v-4.08c0-.312-.063-.583-.19-.813a1.248 1.248 0 0 0-.557-.542c-.249-.127-.557-.19-.923-.19-.342 0-.642.059-.901.176a1.562 1.562 0 0 0-.6.461 1.01 1.01 0 0 0-.213.616h-1.355c0-.284.074-.565.22-.843.147-.278.356-.53.63-.754.278-.23.61-.41.996-.542a3.928 3.928 0 0 1 1.304-.205c.576 0 1.084.097 1.523.293.445.195.791.49 1.04.886.254.39.381.881.381 1.472v3.692c0 .263.022.544.066.842.049.298.12.554.212.769V47h-1.413a2.5 2.5 0 0 1-.161-.623 5.032 5.032 0 0 1-.059-.732Zm.234-3.45.015.953h-1.37c-.385 0-.729.031-1.032.095a2.36 2.36 0 0 0-.762.27 1.294 1.294 0 0 0-.469.462c-.107.18-.161.393-.161.637 0 .25.056.476.169.681.112.206.28.37.505.491.229.117.51.176.842.176a2.23 2.23 0 0 0 1.099-.264c.317-.175.569-.39.754-.644.191-.254.293-.5.308-.74l.579.652a1.974 1.974 0 0 1-.279.681 3.29 3.29 0 0 1-1.501 1.282c-.342.146-.728.22-1.157.22-.538 0-1.009-.105-1.414-.316a2.42 2.42 0 0 1-.938-.842 2.236 2.236 0 0 1-.329-1.194c0-.424.083-.798.249-1.12a2.16 2.16 0 0 1 .718-.813 3.39 3.39 0 0 1 1.128-.498 5.96 5.96 0 0 1 1.472-.169h1.574Zm6.411 1.018h-1.457v-.835h1.348c.376 0 .673-.046.893-.139a.94.94 0 0 0 .469-.403c.093-.17.139-.37.139-.6a1.12 1.12 0 0 0-.161-.579 1.1 1.1 0 0 0-.498-.447c-.23-.117-.537-.175-.923-.175-.313 0-.596.056-.85.168a1.513 1.513 0 0 0-.608.447.992.992 0 0 0-.219.63h-1.355c0-.484.136-.899.41-1.245a2.692 2.692 0 0 1 1.106-.813c.464-.19.969-.286 1.516-.286.459 0 .869.051 1.23.154.367.097.677.244.931.44.254.19.446.429.578.717.137.283.205.613.205.989 0 .268-.063.522-.19.762-.127.239-.31.451-.549.637-.24.18-.53.322-.872.425a3.925 3.925 0 0 1-1.143.153Zm-1.457-.512h1.457c.474 0 .892.046 1.253.139a2.6 2.6 0 0 1 .908.395c.244.176.427.393.549.652.127.254.191.547.191.88a2.11 2.11 0 0 1-.857 1.75 2.963 2.963 0 0 1-.982.468 4.55 4.55 0 0 1-1.252.162 4.335 4.335 0 0 1-1.494-.264 2.783 2.783 0 0 1-1.194-.813c-.313-.371-.469-.843-.469-1.414h1.355c0 .24.076.467.227.681.152.215.362.389.63.52.274.132.589.198.945.198.381 0 .698-.058.952-.176.254-.117.444-.273.571-.468.132-.196.198-.408.198-.638 0-.297-.058-.537-.176-.717a.999.999 0 0 0-.542-.396c-.239-.088-.546-.132-.922-.132h-1.348v-.827Zm10.036.813h-2.6l-.014-1.084h2.124c.42 0 .769-.042 1.047-.125.283-.083.496-.207.637-.373a.914.914 0 0 0 .213-.616.967.967 0 0 0-.125-.498.905.905 0 0 0-.359-.358 1.767 1.767 0 0 0-.6-.213 4.108 4.108 0 0 0-.828-.073h-1.736V47h-1.355v-7.925h3.091c.503 0 .955.044 1.355.132.405.088.749.222 1.033.403.288.176.507.4.659.674.151.273.227.595.227.967 0 .239-.049.466-.147.68a1.656 1.656 0 0 1-.432.572 2.33 2.33 0 0 1-.703.41 3.62 3.62 0 0 1-.959.198l-.528.403Zm0 3.486h-3.09l.674-1.099h2.417c.376 0 .689-.046.938-.139.249-.097.434-.234.556-.41a1.09 1.09 0 0 0 .191-.644 1.06 1.06 0 0 0-.191-.638 1.113 1.113 0 0 0-.556-.41c-.249-.097-.562-.146-.938-.146h-2.058l.015-1.084h2.571l.49.41c.435.034.804.141 1.106.322.303.18.533.41.689.689.156.273.234.57.234.893 0 .371-.071.698-.212.982-.137.283-.337.52-.601.71a2.922 2.922 0 0 1-.959.425 5.325 5.325 0 0 1-1.275.139Zm9.736-1.355v-4.08c0-.312-.063-.583-.19-.813a1.248 1.248 0 0 0-.557-.542c-.249-.127-.556-.19-.922-.19-.342 0-.643.059-.901.176a1.574 1.574 0 0 0-.601.461c-.142.19-.212.396-.212.616h-1.355c0-.284.073-.565.219-.843.147-.278.357-.53.63-.754.279-.23.611-.41.996-.542a3.932 3.932 0 0 1 1.304-.205c.576 0 1.084.097 1.524.293.444.195.791.49 1.04.886.253.39.38.881.38 1.472v3.692c0 .263.022.544.066.842.049.298.12.554.213.769V47h-1.414a2.545 2.545 0 0 1-.161-.623 5.032 5.032 0 0 1-.059-.732Zm.235-3.45.014.953h-1.369c-.386 0-.73.031-1.033.095a2.36 2.36 0 0 0-.762.27 1.218 1.218 0 0 0-.629 1.099c0 .25.056.476.168.681.112.206.281.37.505.491.23.117.511.176.843.176.415 0 .781-.088 1.098-.264.318-.175.569-.39.755-.644.19-.254.293-.5.307-.74l.579.652a1.97 1.97 0 0 1-.278.681 3.273 3.273 0 0 1-1.502 1.282c-.342.146-.727.22-1.157.22-.537 0-1.008-.105-1.414-.316a2.41 2.41 0 0 1-.937-.842 2.228 2.228 0 0 1-.33-1.194c0-.424.083-.798.249-1.12a2.17 2.17 0 0 1 .718-.813 3.41 3.41 0 0 1 1.128-.498 5.96 5.96 0 0 1 1.472-.169h1.575Zm8.828.315v1.099h-4.19V42.51h4.19Zm-3.904-3.435V47h-1.355v-7.925h1.355Zm5.002 0V47h-1.362v-7.925h1.362Zm3.848 5.779 3.655-5.779h1.362V47h-1.362v-5.779L153.036 47h-1.348v-7.925h1.348v5.779Zm10.681 2.293a3.904 3.904 0 0 1-1.502-.279 3.416 3.416 0 0 1-1.15-.798 3.557 3.557 0 0 1-.732-1.216 4.456 4.456 0 0 1-.256-1.538v-.308c0-.644.095-1.218.285-1.72a3.86 3.86 0 0 1 .777-1.29 3.325 3.325 0 0 1 1.113-.798 3.193 3.193 0 0 1 1.289-.271c.566 0 1.055.097 1.465.293.415.195.754.468 1.018.82.264.347.459.757.586 1.23.127.47.19.982.19 1.538v.608h-5.918v-1.105h4.563v-.103a3.36 3.36 0 0 0-.219-1.025 1.847 1.847 0 0 0-.586-.82c-.269-.216-.635-.323-1.099-.323a1.846 1.846 0 0 0-1.516.769c-.186.254-.33.564-.432.93a4.696 4.696 0 0 0-.154 1.267v.308c0 .376.051.73.154 1.062.107.327.261.615.461.864.205.25.452.445.74.586.293.142.625.212.996.212.479 0 .884-.097 1.216-.292a3.01 3.01 0 0 0 .871-.784l.821.652a3.785 3.785 0 0 1-.652.74 3.113 3.113 0 0 1-.974.57c-.381.147-.833.22-1.355.22Z"/><rect width="100" height="36" x="364" y="24" fill="#2688EB" rx="8"/><path fill="#fff" d="M391.453 43.528h1.831a4.232 4.232 0 0 1-.586 1.868c-.332.542-.798.97-1.399 1.282-.601.312-1.331.469-2.19.469-.659 0-1.252-.118-1.78-.352a3.904 3.904 0 0 1-1.355-1.01 4.57 4.57 0 0 1-.864-1.59c-.195-.62-.293-1.314-.293-2.08v-.887c0-.766.1-1.46.3-2.08a4.59 4.59 0 0 1 .879-1.589 3.804 3.804 0 0 1 1.37-1.018c.537-.234 1.14-.351 1.809-.351.85 0 1.567.156 2.153.468.586.313 1.04.745 1.363 1.297.327.551.527 1.184.6 1.897h-1.831c-.049-.46-.156-.852-.322-1.18a1.662 1.662 0 0 0-.718-.747c-.317-.175-.732-.263-1.245-.263-.42 0-.786.078-1.099.234a2.075 2.075 0 0 0-.783.688c-.21.303-.369.677-.476 1.121-.103.44-.154.943-.154 1.509v.9c0 .538.046 1.026.139 1.466.098.434.244.808.439 1.12.201.313.455.554.762.725.308.171.676.257 1.106.257.523 0 .945-.083 1.267-.25.327-.165.574-.407.74-.724.171-.323.283-.716.337-1.18Zm3.138-.402v-.169c0-.571.083-1.101.249-1.59.166-.492.405-.92.718-1.281.317-.366.703-.65 1.157-.85a3.768 3.768 0 0 1 1.553-.307c.581 0 1.099.102 1.553.307.459.2.847.484 1.164.85.318.361.559.788.725 1.282.166.488.249 1.018.249 1.589v.169c0 .57-.083 1.1-.249 1.589a3.792 3.792 0 0 1-.725 1.282 3.357 3.357 0 0 1-1.157.85c-.454.2-.969.3-1.545.3-.582 0-1.102-.1-1.561-.3a3.366 3.366 0 0 1-1.157-.85 3.809 3.809 0 0 1-.725-1.282 4.907 4.907 0 0 1-.249-1.59Zm1.765-.169v.169c0 .356.037.693.11 1.01.073.318.188.596.344.835.157.24.357.427.601.564.244.137.535.205.872.205.327 0 .61-.068.849-.205.244-.137.444-.325.601-.564a2.57 2.57 0 0 0 .344-.835c.078-.317.117-.654.117-1.01v-.169c0-.352-.039-.684-.117-.996a2.536 2.536 0 0 0-.352-.842 1.677 1.677 0 0 0-.6-.572 1.652 1.652 0 0 0-.857-.212c-.332 0-.62.07-.864.212-.24.137-.437.328-.594.572a2.657 2.657 0 0 0-.344.842c-.073.312-.11.645-.11.996Zm10.514.256h-1.523v-.893h1.23c.313 0 .562-.042.747-.125a.79.79 0 0 0 .403-.344 1.08 1.08 0 0 0 .124-.527c0-.176-.041-.342-.124-.498a.899.899 0 0 0-.403-.396c-.19-.102-.449-.154-.776-.154-.269 0-.511.044-.725.132a1.21 1.21 0 0 0-.498.366.856.856 0 0 0-.183.542h-1.766c0-.493.14-.918.418-1.274.283-.357.661-.63 1.135-.82.474-.19.994-.286 1.56-.286.484 0 .918.051 1.304.154a2.8 2.8 0 0 1 .981.44c.274.19.481.429.623.717.146.283.22.613.22.989 0 .268-.064.522-.191.762-.127.239-.31.451-.549.637a2.76 2.76 0 0 1-.872.425 3.893 3.893 0 0 1-1.135.153Zm-1.523-.512h1.523c.469 0 .884.046 1.245.139a2.6 2.6 0 0 1 .908.395c.244.176.428.393.55.652.127.254.19.547.19.88a2.065 2.065 0 0 1-.915 1.75 3.204 3.204 0 0 1-1.033.468 5.114 5.114 0 0 1-1.326.162c-.527 0-1.04-.088-1.538-.264a2.885 2.885 0 0 1-1.223-.813c-.317-.371-.476-.843-.476-1.414h1.765c0 .2.061.388.183.564.122.176.298.32.527.432.23.108.506.161.828.161.332 0 .603-.05.813-.153a1.13 1.13 0 0 0 .469-.418c.102-.176.154-.361.154-.556 0-.264-.052-.477-.154-.638a.875.875 0 0 0-.469-.351 2.293 2.293 0 0 0-.791-.117h-1.23v-.88Zm7.503-3.626h1.765l-.088 2.79c-.024.811-.117 1.507-.278 2.088-.161.581-.371 1.072-.63 1.472a3.97 3.97 0 0 1-.879.974 4.242 4.242 0 0 1-1.018.601h-.52v-1.392l.249-.014a5.5 5.5 0 0 0 .542-.674 3.86 3.86 0 0 0 .396-.755c.107-.278.19-.602.249-.974.063-.37.105-.813.124-1.325l.088-2.79Zm.469 0h5.024V47h-1.758v-6.43h-3.266v-1.495Zm-2.52 6.519h8.628v3.764h-1.765V47h-5.076v2.358h-1.794l.007-3.764Zm14.506-.183v-3.78c0-.283-.051-.527-.154-.732a1.08 1.08 0 0 0-.469-.476c-.205-.113-.464-.169-.776-.169-.288 0-.537.05-.747.147-.21.097-.374.23-.491.395a.956.956 0 0 0-.176.564h-1.758c0-.312.076-.615.228-.908.151-.293.371-.554.659-.783a3.29 3.29 0 0 1 1.032-.542c.401-.132.85-.198 1.348-.198.596 0 1.123.1 1.582.3a2.4 2.4 0 0 1 1.091.908c.269.4.403.904.403 1.509v3.523c0 .361.025.686.073.974.054.283.13.53.228.74V47h-1.81a3.138 3.138 0 0 1-.197-.725 5.913 5.913 0 0 1-.066-.864Zm.256-3.23.015 1.091h-1.267c-.327 0-.616.032-.865.095a1.772 1.772 0 0 0-.622.264 1.145 1.145 0 0 0-.374.425 1.244 1.244 0 0 0-.124.564c0 .21.049.403.146.578.098.171.24.305.425.403.191.098.42.147.689.147.361 0 .676-.074.944-.22.274-.151.489-.335.645-.55.156-.22.239-.427.249-.622l.571.784c-.058.2-.158.415-.3.644-.142.23-.327.45-.557.66a2.75 2.75 0 0 1-1.897.703c-.517 0-.979-.103-1.384-.308a2.46 2.46 0 0 1-.952-.842 2.18 2.18 0 0 1-.344-1.209c0-.42.078-.79.234-1.113.161-.327.396-.6.703-.82a3.42 3.42 0 0 1 1.143-.499 6.115 6.115 0 0 1 1.538-.175h1.384Zm7.072-3.106V47h-1.773v-7.925h1.773Zm2.6 0v1.392h-6.929v-1.392h6.929Zm2.64 2.52h2.336c.684 0 1.265.114 1.743.344.479.23.843.55 1.092.96.254.405.381.869.381 1.391 0 .386-.071.745-.213 1.077a2.381 2.381 0 0 1-.63.857 2.9 2.9 0 0 1-1.01.57c-.396.138-.85.206-1.363.206h-3.508v-7.925h1.772v6.526h1.736c.352 0 .633-.061.843-.183.21-.122.361-.28.454-.476a1.443 1.443 0 0 0 0-1.26 1.123 1.123 0 0 0-.454-.49c-.21-.127-.491-.191-.843-.191h-2.336v-1.406Z"/><rect width="440" height="32" x="24" y="76" fill="#EBEDF0" rx="8"/><path fill="#818C99" d="M42.5 85a5.5 5.5 0 0 1 4.383 8.823l3.896 3.9a.75.75 0 0 1-1.061 1.06l-3.895-3.9A5.5 5.5 0 1 1 42.5 85Zm0 1.5a4 4 0 1 0 0 8 4 4 0 0 0 0-8Zm26.882-.164V97h-1.406v-9.507h-5.259V97h-1.413V86.336h8.078Zm2.2 6.79v-.169c0-.571.083-1.101.249-1.59.166-.493.405-.92.718-1.281.312-.366.69-.65 1.135-.85a3.524 3.524 0 0 1 1.494-.307c.557 0 1.057.102 1.502.307.449.2.83.484 1.142.85.317.361.56.788.725 1.282.166.488.25 1.018.25 1.589v.169c0 .57-.084 1.1-.25 1.589a3.802 3.802 0 0 1-.725 1.282 3.34 3.34 0 0 1-1.135.85c-.44.2-.938.3-1.494.3a3.62 3.62 0 0 1-1.502-.3 3.399 3.399 0 0 1-1.142-.85 3.871 3.871 0 0 1-.718-1.282 4.905 4.905 0 0 1-.25-1.59Zm1.355-.169v.169c0 .395.046.768.139 1.12.093.347.232.654.418.923.19.269.427.48.71.637.283.151.613.227.989.227.37 0 .695-.076.974-.227.283-.156.517-.368.703-.637.185-.269.325-.576.417-.923.098-.352.147-.725.147-1.12v-.169c0-.39-.049-.76-.147-1.106a2.85 2.85 0 0 0-.424-.93 2.018 2.018 0 0 0-.704-.645 1.972 1.972 0 0 0-.981-.234c-.371 0-.698.078-.981.234a2.107 2.107 0 0 0-.704.645 2.938 2.938 0 0 0-.417.93c-.093.347-.14.715-.14 1.106Zm9.223 1.897 3.655-5.779h1.362V97h-1.362v-5.779L82.16 97h-1.347v-7.925h1.347v5.779Zm10.564 1.18c.322 0 .62-.067.894-.199a1.83 1.83 0 0 0 .673-.541c.176-.235.276-.501.3-.799h1.29a2.417 2.417 0 0 1-.476 1.311c-.288.4-.667.725-1.136.974a3.295 3.295 0 0 1-1.545.367c-.596 0-1.116-.106-1.56-.316a3.092 3.092 0 0 1-1.099-.864 3.86 3.86 0 0 1-.651-1.26 5.316 5.316 0 0 1-.213-1.516v-.307c0-.532.07-1.035.213-1.509.146-.478.363-.9.651-1.267a3.1 3.1 0 0 1 1.099-.864c.444-.21.964-.315 1.56-.315.62 0 1.162.127 1.626.38.464.25.828.591 1.091 1.026.269.43.415.918.44 1.465h-1.29a1.952 1.952 0 0 0-.278-.886 1.735 1.735 0 0 0-.644-.63 1.801 1.801 0 0 0-.945-.242c-.415 0-.764.083-1.047.249-.279.161-.5.38-.667.66a3.074 3.074 0 0 0-.351.915 5.033 5.033 0 0 0-.103 1.018v.307c0 .347.034.689.103 1.026.068.337.183.642.344.915.166.274.388.493.666.66.284.16.635.241 1.055.241Zm6.352-6.959V97h-1.355v-7.925h1.355Zm5.201 0-3.758 4.541h-1.897l-.205-1.186h1.553l2.659-3.355h1.648ZM102.819 97l-2.915-3.589.872-.981L104.54 97h-1.721Z"/><rect width="36" height="36" x="24" y="124" fill="#000" fill-opacity=".04" rx="8"/><path fill="#2688EB" fill-rule="evenodd" d="M35.001 141.999a.75.75 0 0 1 .75-.75h12.5a.75.75 0 0 1 0 1.5h-12.5a.75.75 0 0 1-.75-.75Z" clip-rule="evenodd"/><rect width="219.5" height="35.5" x="72.25" y="124.25" fill="#FAEBEB" rx="7.75"/><rect width="219.5" height="35.5" x="72.25" y="124.25" stroke="#E64646" stroke-linejoin="round" stroke-width=".5" rx="7.75"/><path fill="#000" d="M86.388 140.32V147h-1.355v-7.925h1.318l.037 1.245Zm2.475-1.289-.007 1.26a2.017 2.017 0 0 0-.322-.044 3.346 3.346 0 0 0-.337-.015 2.17 2.17 0 0 0-.828.147 1.71 1.71 0 0 0-.608.41 1.979 1.979 0 0 0-.395.63 3.024 3.024 0 0 0-.183.791l-.381.22c0-.479.046-.928.139-1.348a3.65 3.65 0 0 1 .447-1.113c.2-.327.454-.581.761-.762.313-.186.684-.278 1.114-.278.097 0 .21.012.337.036.127.02.215.042.263.066Zm.947 4.094v-.168c0-.571.083-1.101.25-1.589.165-.493.405-.921.717-1.282a3.216 3.216 0 0 1 1.135-.85 3.525 3.525 0 0 1 1.494-.307c.557 0 1.058.102 1.502.307a3.2 3.2 0 0 1 1.143.85c.317.361.559.789.725 1.282.166.488.249 1.018.249 1.589v.168a4.88 4.88 0 0 1-.25 1.59 3.814 3.814 0 0 1-.724 1.282 3.325 3.325 0 0 1-1.136.849c-.44.2-.937.3-1.494.3a3.62 3.62 0 0 1-1.501-.3 3.4 3.4 0 0 1-1.143-.849 3.883 3.883 0 0 1-.718-1.282 4.908 4.908 0 0 1-.249-1.59Zm1.355-.168v.168c0 .396.047.77.14 1.121.092.347.231.654.417.923.19.269.427.481.71.637.284.152.613.227.99.227a2 2 0 0 0 .973-.227c.284-.156.518-.368.703-.637.186-.269.325-.576.418-.923.098-.351.146-.725.146-1.121v-.168a4.06 4.06 0 0 0-.146-1.106 2.848 2.848 0 0 0-.425-.93 2.021 2.021 0 0 0-.703-.645 1.975 1.975 0 0 0-.982-.234 2 2 0 0 0-.98.234 2.11 2.11 0 0 0-.704.645 2.94 2.94 0 0 0-.417.93c-.093.347-.14.715-.14 1.106Zm7.4.168v-.168c0-.571.083-1.101.25-1.589a3.75 3.75 0 0 1 .717-1.282 3.218 3.218 0 0 1 1.135-.85 3.523 3.523 0 0 1 1.494-.307c.557 0 1.057.102 1.502.307.449.201.83.484 1.142.85a3.7 3.7 0 0 1 .725 1.282c.166.488.249 1.018.249 1.589v.168c0 .572-.083 1.102-.249 1.59a3.803 3.803 0 0 1-.725 1.282 3.321 3.321 0 0 1-1.135.849c-.439.2-.937.3-1.494.3-.557 0-1.057-.1-1.502-.3a3.401 3.401 0 0 1-1.142-.849 3.883 3.883 0 0 1-.718-1.282 4.905 4.905 0 0 1-.249-1.59Zm1.355-.168v.168c0 .396.046.77.139 1.121.093.347.232.654.418.923.19.269.427.481.71.637.283.152.613.227.989.227a2 2 0 0 0 .974-.227c.283-.156.518-.368.703-.637.186-.269.325-.576.418-.923.097-.351.146-.725.146-1.121v-.168c0-.391-.049-.759-.146-1.106a2.861 2.861 0 0 0-.425-.93 2.027 2.027 0 0 0-.703-.645 1.979 1.979 0 0 0-.982-.234c-.371 0-.698.078-.981.234a2.1 2.1 0 0 0-.703.645 2.936 2.936 0 0 0-.418.93 4.27 4.27 0 0 0-.139 1.106Zm11.076-3.882v1.04h-4.284v-1.04h4.284Zm-2.834-1.926h1.355v7.888c0 .269.041.471.125.608.083.137.19.227.322.271.132.044.273.066.425.066.112 0 .229-.01.351-.029.127-.025.222-.044.286-.059l.007 1.106a3.134 3.134 0 0 1-.425.095 3.242 3.242 0 0 1-.622.051c-.332 0-.637-.065-.916-.197a1.477 1.477 0 0 1-.666-.659c-.161-.313-.242-.733-.242-1.26v-7.881Z"/><rect width="219.5" height="35.5" x="120.25" y="176.25" fill="#E8F9E8" rx="7.75"/><rect width="219.5" height="35.5" x="120.25" y="176.25" stroke="#4BB34B" stroke-linejoin="round" stroke-width=".5" rx="7.75"/><path fill="#000" d="M135.054 199h-1.355v-8.76c0-.571.103-1.052.308-1.443.21-.395.51-.693.901-.893.39-.205.854-.308 1.391-.308a3.872 3.872 0 0 1 .938.117l-.073 1.106a2.337 2.337 0 0 0-.352-.051 4.852 4.852 0 0 0-.381-.015c-.288 0-.537.059-.747.176a1.115 1.115 0 0 0-.469.498c-.107.22-.161.491-.161.813V199Zm1.685-7.925v1.04h-4.292v-1.04h4.292Zm3.181 0V199h-1.363v-7.925h1.363Zm-1.465-2.102c0-.22.066-.405.198-.556.136-.152.337-.228.6-.228.259 0 .457.076.593.228a.78.78 0 0 1 .213.556c0 .21-.071.391-.213.542-.136.147-.334.22-.593.22-.263 0-.464-.073-.6-.22a.796.796 0 0 1-.198-.542Zm5.312-1.223V199h-1.362v-11.25h1.362Zm5.664 11.396a3.886 3.886 0 0 1-1.501-.278 3.386 3.386 0 0 1-1.15-.798 3.545 3.545 0 0 1-.733-1.216 4.456 4.456 0 0 1-.256-1.538v-.308c0-.644.095-1.218.286-1.721.19-.508.449-.937.776-1.289a3.307 3.307 0 0 1 1.113-.798 3.193 3.193 0 0 1 1.289-.271c.567 0 1.055.097 1.465.293.415.195.755.468 1.018.82.264.347.459.757.586 1.23.127.469.191.982.191 1.539v.607h-5.918v-1.106h4.563v-.102a3.387 3.387 0 0 0-.22-1.025 1.85 1.85 0 0 0-.586-.821c-.269-.215-.635-.322-1.099-.322a1.84 1.84 0 0 0-1.516.769 2.9 2.9 0 0 0-.432.93 4.697 4.697 0 0 0-.154 1.267v.308c0 .376.051.73.154 1.062.107.327.261.615.461.864.206.249.452.445.74.586.293.142.625.213.996.213.479 0 .884-.098 1.216-.293.332-.196.623-.457.872-.784l.82.652a3.765 3.765 0 0 1-.652.739 3.11 3.11 0 0 1-.974.572c-.381.146-.832.219-1.355.219Zm4.888-.864c0-.229.07-.422.212-.578.146-.162.356-.242.63-.242.273 0 .481.08.622.242a.81.81 0 0 1 .22.578.805.805 0 0 1-.22.572c-.141.156-.349.234-.622.234-.274 0-.484-.078-.63-.234a.82.82 0 0 1-.212-.572Zm7.451-7.207v1.04h-4.285v-1.04h4.285Zm-2.835-1.926h1.355v7.888c0 .269.042.471.125.608.083.137.19.227.322.271.132.044.273.066.425.066.112 0 .229-.01.351-.029.127-.025.222-.044.286-.059l.007 1.106a3.134 3.134 0 0 1-.425.095 3.242 3.242 0 0 1-.622.051c-.332 0-.637-.065-.916-.197a1.477 1.477 0 0 1-.666-.659c-.161-.313-.242-.733-.242-1.26v-7.881Zm5.539 1.926 1.736 2.886 1.758-2.886h1.589l-2.592 3.911 2.673 4.014h-1.567l-1.831-2.974-1.832 2.974h-1.574l2.666-4.014-2.586-3.911h1.56Zm10.044 0v1.04h-4.285v-1.04h4.285Zm-2.834-1.926h1.355v7.888c0 .269.041.471.124.608a.597.597 0 0 0 .322.271c.132.044.274.066.425.066.113 0 .23-.01.352-.029.127-.025.222-.044.285-.059l.008 1.106a3.17 3.17 0 0 1-.425.095 3.246 3.246 0 0 1-.623.051c-.332 0-.637-.065-.915-.197a1.479 1.479 0 0 1-.667-.659c-.161-.313-.241-.733-.241-1.26v-7.881Z"/><path fill="#99A2AD" fill-rule="evenodd" d="M330 194a8 8 0 1 0-16 0 8 8 0 0 0 16 0Zm-11.437-3.436a.9.9 0 0 0 0 1.272l2.164 2.164-2.164 2.164a.9.9 0 0 0 1.273 1.272l2.164-2.163 2.164 2.163a.898.898 0 0 0 1.272 0 .898.898 0 0 0 0-1.272L323.273 194l2.163-2.164a.898.898 0 0 0 0-1.272.898.898 0 0 0-1.272 0L322 192.727l-2.164-2.163a.9.9 0 0 0-1.273 0Z" clip-rule="evenodd"/><rect width="36" height="36" x="72" y="228" fill="#000" fill-opacity=".04" rx="8"/><path fill="#2688EB" fill-rule="evenodd" d="M83.001 245.999a.75.75 0 0 1 .75-.75h12.5a.75.75 0 0 1 0 1.5h-12.5a.75.75 0 0 1-.75-.75Z" clip-rule="evenodd"/><rect width="219.5" height="35.5" x="120.25" y="228.25" fill="#2688EB" fill-opacity=".2" rx="7.75"/><rect width="219.5" height="35.5" x="120.25" y="228.25" stroke="#2688EB" stroke-linejoin="round" stroke-width=".5" rx="7.75"/><path fill="#000" d="M138.028 249.462v-9.712h1.362V251h-1.245l-.117-1.538Zm-5.332-2.337v-.153c0-.606.073-1.155.22-1.648.151-.498.363-.926.637-1.282a2.8 2.8 0 0 1 2.278-1.113c.498 0 .932.088 1.303.263.376.171.694.423.952.755.264.327.472.722.623 1.186.151.464.256.989.315 1.575v.674a6.93 6.93 0 0 1-.315 1.567c-.151.464-.359.86-.623 1.187a2.601 2.601 0 0 1-.952.754c-.376.171-.815.256-1.318.256-.464 0-.889-.1-1.274-.3a3.005 3.005 0 0 1-.989-.842 4.076 4.076 0 0 1-.637-1.275 5.588 5.588 0 0 1-.22-1.604Zm1.362-.153v.153c0 .396.039.767.117 1.114.083.346.21.652.381.915.171.264.388.471.652.623.264.146.579.22.945.22.449 0 .818-.096 1.106-.286a2.13 2.13 0 0 0 .703-.754c.176-.313.312-.652.41-1.019v-1.765a3.965 3.965 0 0 0-.256-.776 2.395 2.395 0 0 0-.425-.674 1.836 1.836 0 0 0-.637-.476 2.07 2.07 0 0 0-.887-.176c-.371 0-.69.078-.959.235a1.86 1.86 0 0 0-.652.63 2.904 2.904 0 0 0-.381.922 5.07 5.07 0 0 0-.117 1.114Zm9.114-3.897V251h-1.363v-7.925h1.363Zm-1.465-2.102c0-.22.066-.405.198-.556.136-.152.337-.228.6-.228.259 0 .457.076.593.228a.78.78 0 0 1 .213.556c0 .21-.071.391-.213.542-.136.147-.334.22-.593.22-.263 0-.464-.073-.6-.22a.796.796 0 0 1-.198-.542Zm5.195 3.347V251h-1.355v-7.925h1.318l.037 1.245Zm2.476-1.289-.008 1.26a2.017 2.017 0 0 0-.322-.044 3.351 3.351 0 0 0-.337-.015c-.312 0-.588.049-.828.147a1.728 1.728 0 0 0-.608.41 1.983 1.983 0 0 0-.395.63 3.005 3.005 0 0 0-.183.791l-.381.22c0-.479.046-.928.139-1.348.098-.42.247-.791.447-1.113.2-.327.454-.581.762-.762.312-.186.683-.278 1.113-.278.098 0 .21.012.337.036.127.02.215.042.264.066Zm5.759-2.754V251h-1.355v-9.031l-2.732.996v-1.223l3.874-1.465h.213Z"/><rect width="36" height="36" x="120" y="280" fill="#000" fill-opacity=".04" rx="8"/><path fill="#2688EB" fill-rule="evenodd" d="M138 291a.75.75 0 0 1 .75.75v5.5h5.5a.75.75 0 0 1 0 1.5h-5.5v5.5a.75.75 0 0 1-1.5 0v-5.5h-5.5a.75.75 0 0 1 0-1.5h5.5v-5.5a.75.75 0 0 1 .75-.75Z" clip-rule="evenodd"/><rect width="219.5" height="35.5" x="168.25" y="280.25" fill="#2688EB" fill-opacity=".2" rx="7.75"/><rect width="219.5" height="35.5" x="168.25" y="280.25" stroke="#2688EB" stroke-linejoin="round" stroke-width=".5" rx="7.75"/><path fill="#000" d="M185.647 300.898a1.14 1.14 0 0 0-.132-.542c-.083-.171-.256-.325-.52-.461-.259-.142-.649-.264-1.172-.367a9.202 9.202 0 0 1-1.194-.329 3.615 3.615 0 0 1-.9-.462 1.911 1.911 0 0 1-.564-.637 1.775 1.775 0 0 1-.198-.857c0-.312.068-.608.205-.886.141-.278.339-.525.593-.74.259-.215.569-.383.93-.505a3.765 3.765 0 0 1 1.209-.183c.635 0 1.177.112 1.626.337.449.224.793.525 1.032.901.24.371.359.783.359 1.237h-1.355a1.17 1.17 0 0 0-.197-.637 1.462 1.462 0 0 0-.564-.52c-.244-.137-.545-.205-.901-.205-.376 0-.681.059-.916.176a1.171 1.171 0 0 0-.505.432 1.084 1.084 0 0 0-.081.952.88.88 0 0 0 .279.315c.131.093.317.181.556.264.24.083.545.166.916.249.649.146 1.184.322 1.604.527.42.205.732.457.937.754.205.298.308.66.308 1.084a2.109 2.109 0 0 1-.842 1.7 3.097 3.097 0 0 1-.967.483 4.333 4.333 0 0 1-1.253.168c-.698 0-1.289-.124-1.772-.373-.483-.249-.85-.571-1.099-.967a2.311 2.311 0 0 1-.373-1.252h1.362c.02.371.127.666.322.886.196.215.435.369.718.461.283.088.564.132.842.132.372 0 .682-.049.931-.146.254-.098.446-.232.578-.403a.933.933 0 0 0 .198-.586Zm8.183.271v-6.094h1.363V303h-1.297l-.066-1.831Zm.257-1.67.564-.015c0 .528-.056 1.016-.169 1.465-.107.445-.283.83-.527 1.157a2.479 2.479 0 0 1-.96.769c-.395.181-.876.271-1.442.271-.386 0-.74-.056-1.062-.168a2.125 2.125 0 0 1-.821-.52 2.36 2.36 0 0 1-.534-.916c-.123-.375-.184-.827-.184-1.354v-5.113h1.355v5.127c0 .357.039.652.118.886.083.23.192.413.329.55.142.132.298.224.469.278.176.054.356.081.542.081.576 0 1.033-.11 1.37-.33.336-.225.578-.525.725-.901a3.41 3.41 0 0 0 .227-1.267Zm3.364-7.749h1.362v9.712l-.117 1.538h-1.245v-11.25Zm6.716 7.222v.153a5.97 5.97 0 0 1-.205 1.604 3.936 3.936 0 0 1-.601 1.275 2.798 2.798 0 0 1-.966.842c-.381.2-.818.3-1.311.3-.503 0-.945-.085-1.326-.256a2.61 2.61 0 0 1-.952-.754 3.89 3.89 0 0 1-.623-1.187 7.525 7.525 0 0 1-.315-1.567v-.674a7.539 7.539 0 0 1 .315-1.575c.156-.464.364-.859.623-1.186.259-.332.576-.584.952-.755.376-.175.813-.263 1.311-.263s.94.097 1.326.293c.385.19.708.464.966.82.264.356.464.784.601 1.282a6.15 6.15 0 0 1 .205 1.648Zm-1.362.153v-.153c0-.396-.037-.767-.11-1.114a2.875 2.875 0 0 0-.352-.922 1.74 1.74 0 0 0-.637-.63c-.264-.157-.588-.235-.974-.235-.342 0-.64.059-.894.176a1.934 1.934 0 0 0-.637.476c-.176.195-.32.42-.432.674a3.926 3.926 0 0 0-.242.776v1.765c.079.342.206.672.381.989a2.3 2.3 0 0 0 .718.769c.303.2.676.301 1.121.301.366 0 .678-.074.937-.22.264-.152.476-.359.637-.623a2.92 2.92 0 0 0 .367-.915 5.07 5.07 0 0 0 .117-1.114Zm8.271 2.337v-9.712h1.362V303h-1.245l-.117-1.538Zm-5.332-2.337v-.153c0-.606.073-1.155.22-1.648.151-.498.364-.926.637-1.282a2.8 2.8 0 0 1 2.278-1.113c.498 0 .932.088 1.304.263.375.171.693.423.952.755.263.327.471.722.622 1.186.152.464.257.989.315 1.575v.674a6.93 6.93 0 0 1-.315 1.567c-.151.464-.359.86-.622 1.187a2.618 2.618 0 0 1-.952.754c-.376.171-.816.256-1.319.256-.464 0-.889-.1-1.274-.3a3.005 3.005 0 0 1-.989-.842 4.098 4.098 0 0 1-.637-1.275 5.588 5.588 0 0 1-.22-1.604Zm1.362-.153v.153c0 .396.039.767.118 1.114.083.346.209.652.38.915.171.264.389.471.652.623.264.146.579.22.945.22.449 0 .818-.096 1.106-.286a2.13 2.13 0 0 0 .703-.754 4.32 4.32 0 0 0 .41-1.019v-1.765a3.9 3.9 0 0 0-.256-.776 2.372 2.372 0 0 0-.425-.674 1.836 1.836 0 0 0-.637-.476 2.065 2.065 0 0 0-.886-.176c-.371 0-.691.078-.96.235a1.87 1.87 0 0 0-.652.63 2.903 2.903 0 0 0-.38.922 5.008 5.008 0 0 0-.118 1.114Zm9.114-3.897V303h-1.362v-7.925h1.362Zm-1.465-2.102c0-.22.066-.405.198-.556.137-.152.337-.228.6-.228.259 0 .457.076.594.228a.784.784 0 0 1 .212.556c0 .21-.071.391-.212.542-.137.147-.335.22-.594.22-.263 0-.463-.073-.6-.22a.796.796 0 0 1-.198-.542Zm5.195 3.347V303h-1.355v-7.925h1.319l.036 1.245Zm2.476-1.289-.008 1.26a2.002 2.002 0 0 0-.322-.044 3.337 3.337 0 0 0-.337-.015c-.312 0-.588.049-.827.147a1.71 1.71 0 0 0-.608.41 1.985 1.985 0 0 0-.396.63 3.005 3.005 0 0 0-.183.791l-.381.22c0-.479.047-.928.139-1.348.098-.42.247-.791.447-1.113.2-.327.454-.581.762-.762.312-.186.684-.278 1.113-.278.098 0 .21.012.337.036.127.02.215.042.264.066Zm5.759-2.754V303h-1.355v-9.031l-2.732.996v-1.223l3.874-1.465h.213Z"/><rect width="36" height="36" x="120" y="332" fill="#000" fill-opacity=".04" rx="8"/><path fill="#2688EB" fill-rule="evenodd" d="M131.001 349.999a.75.75 0 0 1 .75-.75h12.5a.75.75 0 0 1 0 1.5h-12.5a.75.75 0 0 1-.75-.75Z" clip-rule="evenodd"/><rect width="219.5" height="35.5" x="168.25" y="332.25" fill="#2688EB" fill-opacity=".2" rx="7.75"/><rect width="219.5" height="35.5" x="168.25" y="332.25" stroke="#2688EB" stroke-linejoin="round" stroke-width=".5" rx="7.75"/><path fill="#000" d="M185.647 352.898a1.14 1.14 0 0 0-.132-.542c-.083-.171-.256-.325-.52-.461-.259-.142-.649-.264-1.172-.367a9.202 9.202 0 0 1-1.194-.329 3.615 3.615 0 0 1-.9-.462 1.911 1.911 0 0 1-.564-.637 1.775 1.775 0 0 1-.198-.857c0-.312.068-.608.205-.886.141-.278.339-.525.593-.74.259-.215.569-.383.93-.505a3.765 3.765 0 0 1 1.209-.183c.635 0 1.177.112 1.626.337.449.224.793.525 1.032.901.24.371.359.783.359 1.237h-1.355a1.17 1.17 0 0 0-.197-.637 1.462 1.462 0 0 0-.564-.52c-.244-.137-.545-.205-.901-.205-.376 0-.681.059-.916.176a1.171 1.171 0 0 0-.505.432 1.084 1.084 0 0 0-.081.952.88.88 0 0 0 .279.315c.131.093.317.181.556.264.24.083.545.166.916.249.649.146 1.184.322 1.604.527.42.205.732.457.937.754.205.298.308.66.308 1.084a2.109 2.109 0 0 1-.842 1.7 3.097 3.097 0 0 1-.967.483 4.333 4.333 0 0 1-1.253.168c-.698 0-1.289-.124-1.772-.373-.483-.249-.85-.571-1.099-.967a2.311 2.311 0 0 1-.373-1.252h1.362c.02.371.127.666.322.886.196.215.435.369.718.461.283.088.564.132.842.132.372 0 .682-.049.931-.146.254-.098.446-.232.578-.403a.933.933 0 0 0 .198-.586Zm8.183.271v-6.094h1.363V355h-1.297l-.066-1.831Zm.257-1.67.564-.015c0 .528-.056 1.016-.169 1.465-.107.445-.283.83-.527 1.157a2.479 2.479 0 0 1-.96.769c-.395.181-.876.271-1.442.271-.386 0-.74-.056-1.062-.168a2.125 2.125 0 0 1-.821-.52 2.36 2.36 0 0 1-.534-.916c-.123-.375-.184-.827-.184-1.354v-5.113h1.355v5.127c0 .357.039.652.118.886.083.23.192.413.329.55.142.132.298.224.469.278.176.054.356.081.542.081.576 0 1.033-.11 1.37-.33.336-.225.578-.525.725-.901a3.41 3.41 0 0 0 .227-1.267Zm3.364-7.749h1.362v9.712l-.117 1.538h-1.245v-11.25Zm6.716 7.222v.153a5.97 5.97 0 0 1-.205 1.604 3.936 3.936 0 0 1-.601 1.275 2.798 2.798 0 0 1-.966.842c-.381.2-.818.3-1.311.3-.503 0-.945-.085-1.326-.256a2.61 2.61 0 0 1-.952-.754 3.89 3.89 0 0 1-.623-1.187 7.525 7.525 0 0 1-.315-1.567v-.674a7.539 7.539 0 0 1 .315-1.575c.156-.464.364-.859.623-1.186.259-.332.576-.584.952-.755.376-.175.813-.263 1.311-.263s.94.097 1.326.293c.385.19.708.464.966.82.264.356.464.784.601 1.282a6.15 6.15 0 0 1 .205 1.648Zm-1.362.153v-.153c0-.396-.037-.767-.11-1.114a2.875 2.875 0 0 0-.352-.922 1.74 1.74 0 0 0-.637-.63c-.264-.157-.588-.235-.974-.235-.342 0-.64.059-.894.176a1.934 1.934 0 0 0-.637.476c-.176.195-.32.42-.432.674a3.926 3.926 0 0 0-.242.776v1.765c.079.342.206.672.381.989a2.3 2.3 0 0 0 .718.769c.303.2.676.301 1.121.301.366 0 .678-.074.937-.22.264-.152.476-.359.637-.623a2.92 2.92 0 0 0 .367-.915 5.07 5.07 0 0 0 .117-1.114Zm8.271 2.337v-9.712h1.362V355h-1.245l-.117-1.538Zm-5.332-2.337v-.153c0-.606.073-1.155.22-1.648.151-.498.364-.926.637-1.282a2.8 2.8 0 0 1 2.278-1.113c.498 0 .932.088 1.304.263.375.171.693.423.952.755.263.327.471.722.622 1.186.152.464.257.989.315 1.575v.674a6.93 6.93 0 0 1-.315 1.567c-.151.464-.359.86-.622 1.187a2.618 2.618 0 0 1-.952.754c-.376.171-.816.256-1.319.256-.464 0-.889-.1-1.274-.3a3.005 3.005 0 0 1-.989-.842 4.098 4.098 0 0 1-.637-1.275 5.588 5.588 0 0 1-.22-1.604Zm1.362-.153v.153c0 .396.039.767.118 1.114.083.346.209.652.38.915.171.264.389.471.652.623.264.146.579.22.945.22.449 0 .818-.096 1.106-.286a2.13 2.13 0 0 0 .703-.754 4.32 4.32 0 0 0 .41-1.019v-1.765a3.9 3.9 0 0 0-.256-.776 2.372 2.372 0 0 0-.425-.674 1.836 1.836 0 0 0-.637-.476 2.065 2.065 0 0 0-.886-.176c-.371 0-.691.078-.96.235a1.87 1.87 0 0 0-.652.63 2.903 2.903 0 0 0-.38.922 5.008 5.008 0 0 0-.118 1.114Zm9.114-3.897V355h-1.362v-7.925h1.362Zm-1.465-2.102c0-.22.066-.405.198-.556.137-.152.337-.228.6-.228.259 0 .457.076.594.228a.784.784 0 0 1 .212.556c0 .21-.071.391-.212.542-.137.147-.335.22-.594.22-.263 0-.463-.073-.6-.22a.796.796 0 0 1-.198-.542Zm5.195 3.347V355h-1.355v-7.925h1.319l.036 1.245Zm2.476-1.289-.008 1.26a2.002 2.002 0 0 0-.322-.044 3.337 3.337 0 0 0-.337-.015c-.312 0-.588.049-.827.147a1.71 1.71 0 0 0-.608.41 1.985 1.985 0 0 0-.396.63 3.005 3.005 0 0 0-.183.791l-.381.22c0-.479.047-.928.139-1.348.098-.42.247-.791.447-1.113.2-.327.454-.581.762-.762.312-.186.684-.278 1.113-.278.098 0 .21.012.337.036.127.02.215.042.264.066Zm8.293 6.856V355h-6.98v-.974l3.494-3.889c.429-.479.761-.884.996-1.216.239-.337.405-.637.498-.901.098-.269.146-.542.146-.82 0-.352-.073-.669-.219-.952a1.648 1.648 0 0 0-.63-.689c-.279-.171-.616-.256-1.011-.256-.474 0-.869.093-1.187.278a1.723 1.723 0 0 0-.703.762 2.59 2.59 0 0 0-.234 1.128h-1.355c0-.601.132-1.15.395-1.648a2.922 2.922 0 0 1 1.172-1.187c.518-.298 1.155-.447 1.912-.447.674 0 1.25.12 1.729.359.478.235.844.567 1.098.996.259.425.388.923.388 1.495 0 .312-.053.629-.161.952a4.8 4.8 0 0 1-.432.952c-.181.317-.393.63-.637.937-.239.308-.496.611-.769.909l-2.857 3.098h5.347Z"/><rect width="219.5" height="35.5" x="216.25" y="384.25" fill="#E8F9E8" rx="7.75"/><rect width="219.5" height="35.5" x="216.25" y="384.25" stroke="#4BB34B" stroke-linejoin="round" stroke-width=".5" rx="7.75"/><path fill="#000" d="M231.054 407h-1.355v-8.76c0-.571.103-1.052.308-1.443.21-.395.51-.693.901-.893.39-.205.854-.308 1.391-.308a3.872 3.872 0 0 1 .938.117l-.073 1.106a2.337 2.337 0 0 0-.352-.051 4.852 4.852 0 0 0-.381-.015c-.288 0-.537.059-.747.176a1.115 1.115 0 0 0-.469.498c-.107.22-.161.491-.161.813V407Zm1.685-7.925v1.04h-4.292v-1.04h4.292Zm3.181 0V407h-1.363v-7.925h1.363Zm-1.465-2.102c0-.22.066-.405.198-.556.136-.152.337-.228.6-.228.259 0 .457.076.593.228a.78.78 0 0 1 .213.556c0 .21-.071.391-.213.542-.136.147-.334.22-.593.22-.263 0-.464-.073-.6-.22a.796.796 0 0 1-.198-.542Zm5.312-1.223V407h-1.362v-11.25h1.362Zm5.664 11.396a3.886 3.886 0 0 1-1.501-.278 3.386 3.386 0 0 1-1.15-.798 3.545 3.545 0 0 1-.733-1.216 4.456 4.456 0 0 1-.256-1.538v-.308c0-.644.095-1.218.286-1.721.19-.508.449-.937.776-1.289a3.307 3.307 0 0 1 1.113-.798 3.193 3.193 0 0 1 1.289-.271c.567 0 1.055.097 1.465.293.415.195.755.468 1.018.82.264.347.459.757.586 1.23.127.469.191.982.191 1.539v.607h-5.918v-1.106h4.563v-.102a3.387 3.387 0 0 0-.22-1.025 1.85 1.85 0 0 0-.586-.821c-.269-.215-.635-.322-1.099-.322a1.84 1.84 0 0 0-1.516.769 2.9 2.9 0 0 0-.432.93 4.697 4.697 0 0 0-.154 1.267v.308c0 .376.051.73.154 1.062.107.327.261.615.461.864.206.249.452.445.74.586.293.142.625.213.996.213.479 0 .884-.098 1.216-.293.332-.196.623-.457.872-.784l.82.652a3.765 3.765 0 0 1-.652.739 3.11 3.11 0 0 1-.974.572c-.381.146-.832.219-1.355.219Zm9.172-10.869V407h-1.355v-9.031l-2.732.996v-1.223l3.875-1.465h.212Zm4.353 10.005c0-.229.071-.422.212-.578.147-.162.357-.242.63-.242.274 0 .481.08.623.242.146.156.22.349.22.578a.81.81 0 0 1-.22.572c-.142.156-.349.234-.623.234-.273 0-.483-.078-.63-.234a.825.825 0 0 1-.212-.572Zm7.451-7.207v1.04h-4.285v-1.04h4.285Zm-2.834-1.926h1.355v7.888c0 .269.041.471.124.608.083.137.19.227.322.271.132.044.274.066.425.066.112 0 .23-.01.352-.029.127-.025.222-.044.285-.059l.008 1.106a3.17 3.17 0 0 1-.425.095 3.253 3.253 0 0 1-.623.051c-.332 0-.637-.065-.915-.197a1.474 1.474 0 0 1-.667-.659c-.161-.313-.241-.733-.241-1.26v-7.881Zm5.539 1.926 1.736 2.886 1.758-2.886h1.589l-2.593 3.911 2.673 4.014h-1.567l-1.831-2.974-1.831 2.974h-1.575l2.666-4.014-2.585-3.911h1.56Zm10.044 0v1.04h-4.285v-1.04h4.285Zm-2.835-1.926h1.355v7.888c0 .269.042.471.125.608.083.137.19.227.322.271.132.044.273.066.425.066.112 0 .229-.01.351-.029.127-.025.222-.044.286-.059l.007 1.106a3.134 3.134 0 0 1-.425.095c-.17.034-.378.051-.622.051-.332 0-.637-.065-.916-.197a1.477 1.477 0 0 1-.666-.659c-.161-.313-.242-.733-.242-1.26v-7.881Z"/><path fill="#99A2AD" fill-rule="evenodd" d="M426 402a8 8 0 1 0-16 0 8 8 0 0 0 16 0Zm-11.437-3.436a.9.9 0 0 0 0 1.272l2.164 2.164-2.164 2.164a.9.9 0 0 0 1.273 1.272l2.164-2.163 2.164 2.163a.898.898 0 0 0 1.272 0 .898.898 0 0 0 0-1.272L419.273 402l2.163-2.164a.898.898 0 0 0 0-1.272.898.898 0 0 0-1.272 0L418 400.727l-2.164-2.163a.9.9 0 0 0-1.273 0Z" clip-rule="evenodd"/><rect width="36" height="36" x="72" y="436" fill="#000" fill-opacity=".04" rx="8"/><path fill="#2688EB" fill-rule="evenodd" d="M83.001 453.999a.75.75 0 0 1 .75-.75h12.5a.75.75 0 0 1 0 1.5h-12.5a.75.75 0 0 1-.75-.75Z" clip-rule="evenodd"/><rect width="219.5" height="35.5" x="120.25" y="436.25" fill="#2688EB" fill-opacity=".2" rx="7.75"/><rect width="219.5" height="35.5" x="120.25" y="436.25" stroke="#2688EB" stroke-linejoin="round" stroke-width=".5" rx="7.75"/><path fill="#000" d="M138.028 457.462v-9.712h1.362V459h-1.245l-.117-1.538Zm-5.332-2.337v-.153c0-.606.073-1.155.22-1.648.151-.498.363-.926.637-1.282a2.8 2.8 0 0 1 2.278-1.113c.498 0 .932.088 1.303.263.376.171.694.423.952.755.264.327.472.722.623 1.186.151.464.256.989.315 1.575v.674a6.93 6.93 0 0 1-.315 1.567c-.151.464-.359.86-.623 1.187a2.601 2.601 0 0 1-.952.754c-.376.171-.815.256-1.318.256-.464 0-.889-.1-1.274-.3a3.005 3.005 0 0 1-.989-.842 4.076 4.076 0 0 1-.637-1.275 5.588 5.588 0 0 1-.22-1.604Zm1.362-.153v.153c0 .396.039.767.117 1.114.083.346.21.652.381.915.171.264.388.471.652.623.264.146.579.22.945.22.449 0 .818-.096 1.106-.286a2.13 2.13 0 0 0 .703-.754c.176-.313.312-.652.41-1.019v-1.765a3.965 3.965 0 0 0-.256-.776 2.395 2.395 0 0 0-.425-.674 1.836 1.836 0 0 0-.637-.476 2.07 2.07 0 0 0-.887-.176c-.371 0-.69.078-.959.235a1.86 1.86 0 0 0-.652.63 2.904 2.904 0 0 0-.381.922 5.07 5.07 0 0 0-.117 1.114Zm9.114-3.897V459h-1.363v-7.925h1.363Zm-1.465-2.102c0-.22.066-.405.198-.556.136-.152.337-.228.6-.228.259 0 .457.076.593.228a.78.78 0 0 1 .213.556c0 .21-.071.391-.213.542-.136.147-.334.22-.593.22-.263 0-.464-.073-.6-.22a.796.796 0 0 1-.198-.542Zm5.195 3.347V459h-1.355v-7.925h1.318l.037 1.245Zm2.476-1.289-.008 1.26a2.017 2.017 0 0 0-.322-.044 3.351 3.351 0 0 0-.337-.015c-.312 0-.588.049-.828.147a1.728 1.728 0 0 0-.608.41 1.983 1.983 0 0 0-.395.63 3.005 3.005 0 0 0-.183.791l-.381.22c0-.479.046-.928.139-1.348.098-.42.247-.791.447-1.113.2-.327.454-.581.762-.762.312-.186.683-.278 1.113-.278.098 0 .21.012.337.036.127.02.215.042.264.066Zm8.293 6.856V459h-6.98v-.974l3.493-3.889c.43-.479.762-.884.997-1.216.239-.337.405-.637.498-.901a2.4 2.4 0 0 0 .146-.82c0-.352-.073-.669-.22-.952a1.635 1.635 0 0 0-.63-.689c-.278-.171-.615-.256-1.01-.256-.474 0-.869.093-1.187.278a1.717 1.717 0 0 0-.703.762 2.59 2.59 0 0 0-.234 1.128h-1.355c0-.601.132-1.15.395-1.648a2.922 2.922 0 0 1 1.172-1.187c.518-.298 1.155-.447 1.912-.447.674 0 1.25.12 1.728.359.479.235.845.567 1.099.996.259.425.388.923.388 1.495 0 .312-.054.629-.161.952a4.917 4.917 0 0 1-.432.952c-.181.317-.393.63-.637.937-.24.308-.496.611-.769.909l-2.857 3.098h5.347Z"/><rect width="219.5" height="35.5" x="168.25" y="488.25" fill="#E8F9E8" rx="7.75"/><rect width="219.5" height="35.5" x="168.25" y="488.25" stroke="#4BB34B" stroke-linejoin="round" stroke-width=".5" rx="7.75"/><path fill="#000" d="M183.054 511h-1.355v-8.76c0-.571.103-1.052.308-1.443.21-.395.51-.693.901-.893.39-.205.854-.308 1.391-.308a3.872 3.872 0 0 1 .938.117l-.073 1.106a2.337 2.337 0 0 0-.352-.051 4.852 4.852 0 0 0-.381-.015c-.288 0-.537.059-.747.176a1.115 1.115 0 0 0-.469.498c-.107.22-.161.491-.161.813V511Zm1.685-7.925v1.04h-4.292v-1.04h4.292Zm3.181 0V511h-1.363v-7.925h1.363Zm-1.465-2.102c0-.22.066-.405.198-.556.136-.152.337-.228.6-.228.259 0 .457.076.593.228a.78.78 0 0 1 .213.556c0 .21-.071.391-.213.542-.136.147-.334.22-.593.22-.263 0-.464-.073-.6-.22a.796.796 0 0 1-.198-.542Zm5.312-1.223V511h-1.362v-11.25h1.362Zm5.664 11.396a3.886 3.886 0 0 1-1.501-.278 3.386 3.386 0 0 1-1.15-.798 3.545 3.545 0 0 1-.733-1.216 4.456 4.456 0 0 1-.256-1.538v-.308c0-.644.095-1.218.286-1.721.19-.508.449-.937.776-1.289a3.307 3.307 0 0 1 1.113-.798 3.193 3.193 0 0 1 1.289-.271c.567 0 1.055.097 1.465.293.415.195.755.468 1.018.82.264.347.459.757.586 1.23.127.469.191.982.191 1.539v.607h-5.918v-1.106h4.563v-.102a3.387 3.387 0 0 0-.22-1.025 1.85 1.85 0 0 0-.586-.821c-.269-.215-.635-.322-1.099-.322a1.84 1.84 0 0 0-1.516.769 2.9 2.9 0 0 0-.432.93 4.697 4.697 0 0 0-.154 1.267v.308c0 .376.051.73.154 1.062.107.327.261.615.461.864.206.249.452.445.74.586.293.142.625.213.996.213.479 0 .884-.098 1.216-.293.332-.196.623-.457.872-.784l.82.652a3.765 3.765 0 0 1-.652.739 3.11 3.11 0 0 1-.974.572c-.381.146-.832.219-1.355.219Zm11.706-1.259V511h-6.98v-.974l3.494-3.889c.43-.479.762-.884.996-1.216.239-.337.405-.637.498-.901.098-.269.147-.542.147-.82 0-.352-.074-.669-.22-.952a1.648 1.648 0 0 0-.63-.689c-.278-.171-.615-.256-1.011-.256-.473 0-.869.093-1.186.278a1.711 1.711 0 0 0-.703.762 2.576 2.576 0 0 0-.235 1.128h-1.355c0-.601.132-1.15.396-1.648a2.916 2.916 0 0 1 1.172-1.187c.517-.298 1.155-.447 1.911-.447.674 0 1.25.12 1.729.359.478.235.845.567 1.098.996.259.425.389.923.389 1.495 0 .312-.054.629-.161.952a4.863 4.863 0 0 1-.433.952c-.18.317-.393.63-.637.937-.239.308-.495.611-.769.909l-2.856 3.098h5.346Zm1.819.395c0-.229.071-.422.212-.578.147-.162.357-.242.63-.242.274 0 .481.08.623.242.146.156.22.349.22.578a.81.81 0 0 1-.22.572c-.142.156-.349.234-.623.234-.273 0-.483-.078-.63-.234a.825.825 0 0 1-.212-.572Zm7.451-7.207v1.04h-4.285v-1.04h4.285Zm-2.834-1.926h1.355v7.888c0 .269.041.471.124.608.083.137.19.227.322.271.132.044.274.066.425.066.112 0 .23-.01.352-.029.127-.025.222-.044.285-.059l.008 1.106a3.17 3.17 0 0 1-.425.095 3.253 3.253 0 0 1-.623.051c-.332 0-.637-.065-.915-.197a1.474 1.474 0 0 1-.667-.659c-.161-.313-.241-.733-.241-1.26v-7.881Zm5.539 1.926 1.736 2.886 1.758-2.886h1.589l-2.593 3.911 2.673 4.014h-1.567l-1.831-2.974-1.831 2.974h-1.575l2.666-4.014-2.585-3.911h1.56Zm10.044 0v1.04h-4.285v-1.04h4.285Zm-2.835-1.926h1.355v7.888c0 .269.042.471.125.608.083.137.19.227.322.271.132.044.273.066.425.066.112 0 .229-.01.351-.029.127-.025.222-.044.286-.059l.007 1.106a3.134 3.134 0 0 1-.425.095c-.17.034-.378.051-.622.051-.332 0-.637-.065-.916-.197a1.477 1.477 0 0 1-.666-.659c-.161-.313-.242-.733-.242-1.26v-7.881Z"/><rect width="219.5" height="35.5" x="168.25" y="540.25" fill="#E8F9E8" rx="7.75"/><rect width="219.5" height="35.5" x="168.25" y="540.25" stroke="#4BB34B" stroke-linejoin="round" stroke-width=".5" rx="7.75"/><path fill="#000" d="M183.054 563h-1.355v-8.76c0-.571.103-1.052.308-1.443.21-.395.51-.693.901-.893.39-.205.854-.308 1.391-.308a3.872 3.872 0 0 1 .938.117l-.073 1.106a2.337 2.337 0 0 0-.352-.051 4.852 4.852 0 0 0-.381-.015c-.288 0-.537.059-.747.176a1.115 1.115 0 0 0-.469.498c-.107.22-.161.491-.161.813V563Zm1.685-7.925v1.04h-4.292v-1.04h4.292Zm3.181 0V563h-1.363v-7.925h1.363Zm-1.465-2.102c0-.22.066-.405.198-.556.136-.152.337-.228.6-.228.259 0 .457.076.593.228a.78.78 0 0 1 .213.556c0 .21-.071.391-.213.542-.136.147-.334.22-.593.22-.263 0-.464-.073-.6-.22a.796.796 0 0 1-.198-.542Zm5.312-1.223V563h-1.362v-11.25h1.362Zm5.664 11.396a3.886 3.886 0 0 1-1.501-.278 3.386 3.386 0 0 1-1.15-.798 3.545 3.545 0 0 1-.733-1.216 4.456 4.456 0 0 1-.256-1.538v-.308c0-.644.095-1.218.286-1.721.19-.508.449-.937.776-1.289a3.307 3.307 0 0 1 1.113-.798 3.193 3.193 0 0 1 1.289-.271c.567 0 1.055.097 1.465.293.415.195.755.468 1.018.82.264.347.459.757.586 1.23.127.469.191.982.191 1.539v.607h-5.918v-1.106h4.563v-.102a3.387 3.387 0 0 0-.22-1.025 1.85 1.85 0 0 0-.586-.821c-.269-.215-.635-.322-1.099-.322a1.84 1.84 0 0 0-1.516.769 2.9 2.9 0 0 0-.432.93 4.697 4.697 0 0 0-.154 1.267v.308c0 .376.051.73.154 1.062.107.327.261.615.461.864.206.249.452.445.74.586.293.142.625.213.996.213.479 0 .884-.098 1.216-.293.332-.196.623-.457.872-.784l.82.652a3.765 3.765 0 0 1-.652.739 3.11 3.11 0 0 1-.974.572c-.381.146-.832.219-1.355.219Zm6.697-6.145h.966c.474 0 .865-.078 1.172-.234.313-.161.545-.378.696-.652.156-.278.234-.591.234-.937 0-.41-.068-.755-.205-1.033a1.37 1.37 0 0 0-.615-.63c-.273-.141-.62-.212-1.04-.212-.381 0-.718.075-1.011.227a1.656 1.656 0 0 0-.681.63 1.867 1.867 0 0 0-.241.966h-1.355c0-.542.136-1.035.41-1.479a2.946 2.946 0 0 1 1.15-1.062c.498-.264 1.074-.396 1.728-.396.645 0 1.209.115 1.692.345a2.52 2.52 0 0 1 1.128 1.01c.269.445.403.999.403 1.663 0 .269-.064.557-.191.864a2.565 2.565 0 0 1-.578.85 2.988 2.988 0 0 1-1.011.652c-.415.166-.913.249-1.494.249h-1.157v-.821Zm0 1.114v-.813h1.157c.679 0 1.24.08 1.684.241.445.162.794.376 1.048.645.259.269.439.564.542.886.107.318.161.635.161.952 0 .498-.086.94-.256 1.326a2.69 2.69 0 0 1-.711.981 3.023 3.023 0 0 1-1.069.608c-.41.137-.857.205-1.341.205-.463 0-.9-.065-1.311-.197a3.395 3.395 0 0 1-1.076-.572 2.666 2.666 0 0 1-.733-.93 2.935 2.935 0 0 1-.263-1.267h1.355c0 .371.08.696.241.974.166.279.401.496.703.652.308.152.669.227 1.084.227.415 0 .772-.071 1.07-.212.303-.147.534-.366.696-.659.166-.293.249-.662.249-1.106 0-.445-.093-.808-.279-1.092a1.631 1.631 0 0 0-.791-.637c-.337-.141-.735-.212-1.194-.212h-.966Zm6.828 4.167c0-.229.071-.422.212-.578.147-.162.357-.242.63-.242.274 0 .481.08.623.242.146.156.22.349.22.578a.81.81 0 0 1-.22.572c-.142.156-.349.234-.623.234-.273 0-.483-.078-.63-.234a.825.825 0 0 1-.212-.572Zm7.451-7.207v1.04h-4.285v-1.04h4.285Zm-2.834-1.926h1.355v7.888c0 .269.041.471.124.608.083.137.19.227.322.271.132.044.274.066.425.066.112 0 .23-.01.352-.029.127-.025.222-.044.285-.059l.008 1.106a3.17 3.17 0 0 1-.425.095 3.253 3.253 0 0 1-.623.051c-.332 0-.637-.065-.915-.197a1.474 1.474 0 0 1-.667-.659c-.161-.313-.241-.733-.241-1.26v-7.881Zm5.539 1.926 1.736 2.886 1.758-2.886h1.589l-2.593 3.911 2.673 4.014h-1.567l-1.831-2.974-1.831 2.974h-1.575l2.666-4.014-2.585-3.911h1.56Zm10.044 0v1.04h-4.285v-1.04h4.285Zm-2.835-1.926h1.355v7.888c0 .269.042.471.125.608.083.137.19.227.322.271.132.044.273.066.425.066.112 0 .229-.01.351-.029.127-.025.222-.044.286-.059l.007 1.106a3.134 3.134 0 0 1-.425.095c-.17.034-.378.051-.622.051-.332 0-.637-.065-.916-.197a1.477 1.477 0 0 1-.666-.659c-.161-.313-.242-.733-.242-1.26v-7.881Z"/><rect width="219.5" height="35.5" x="168.25" y="592.25" fill="#2688EB" fill-opacity=".2" rx="7.75"/><rect width="219.5" height="35.5" x="168.25" y="592.25" stroke="#2688EB" stroke-linejoin="round" stroke-width=".5" rx="7.75"/><path fill="#000" d="M185.647 612.898a1.14 1.14 0 0 0-.132-.542c-.083-.171-.256-.325-.52-.461-.259-.142-.649-.264-1.172-.367a9.202 9.202 0 0 1-1.194-.329 3.615 3.615 0 0 1-.9-.462 1.911 1.911 0 0 1-.564-.637 1.775 1.775 0 0 1-.198-.857c0-.312.068-.608.205-.886.141-.278.339-.525.593-.74.259-.215.569-.383.93-.505a3.765 3.765 0 0 1 1.209-.183c.635 0 1.177.112 1.626.337.449.224.793.525 1.032.901.24.371.359.783.359 1.237h-1.355a1.17 1.17 0 0 0-.197-.637 1.462 1.462 0 0 0-.564-.52c-.244-.137-.545-.205-.901-.205-.376 0-.681.059-.916.176a1.171 1.171 0 0 0-.505.432 1.084 1.084 0 0 0-.081.952.88.88 0 0 0 .279.315c.131.093.317.181.556.264.24.083.545.166.916.249.649.146 1.184.322 1.604.527.42.205.732.457.937.754.205.298.308.66.308 1.084a2.109 2.109 0 0 1-.842 1.7 3.097 3.097 0 0 1-.967.483 4.333 4.333 0 0 1-1.253.168c-.698 0-1.289-.124-1.772-.373-.483-.249-.85-.571-1.099-.967a2.311 2.311 0 0 1-.373-1.252h1.362c.02.371.127.666.322.886.196.215.435.369.718.461.283.088.564.132.842.132.372 0 .682-.049.931-.146.254-.098.446-.232.578-.403a.933.933 0 0 0 .198-.586Zm8.183.271v-6.094h1.363V615h-1.297l-.066-1.831Zm.257-1.67.564-.015c0 .528-.056 1.016-.169 1.465-.107.445-.283.83-.527 1.157a2.479 2.479 0 0 1-.96.769c-.395.181-.876.271-1.442.271-.386 0-.74-.056-1.062-.168a2.125 2.125 0 0 1-.821-.52 2.36 2.36 0 0 1-.534-.916c-.123-.375-.184-.827-.184-1.354v-5.113h1.355v5.127c0 .357.039.652.118.886.083.23.192.413.329.55.142.132.298.224.469.278.176.054.356.081.542.081.576 0 1.033-.11 1.37-.33.336-.225.578-.525.725-.901a3.41 3.41 0 0 0 .227-1.267Zm3.364-7.749h1.362v9.712l-.117 1.538h-1.245v-11.25Zm6.716 7.222v.153a5.97 5.97 0 0 1-.205 1.604 3.936 3.936 0 0 1-.601 1.275 2.798 2.798 0 0 1-.966.842c-.381.2-.818.3-1.311.3-.503 0-.945-.085-1.326-.256a2.61 2.61 0 0 1-.952-.754 3.89 3.89 0 0 1-.623-1.187 7.525 7.525 0 0 1-.315-1.567v-.674a7.539 7.539 0 0 1 .315-1.575c.156-.464.364-.859.623-1.186.259-.332.576-.584.952-.755.376-.175.813-.263 1.311-.263s.94.097 1.326.293c.385.19.708.464.966.82.264.356.464.784.601 1.282a6.15 6.15 0 0 1 .205 1.648Zm-1.362.153v-.153c0-.396-.037-.767-.11-1.114a2.875 2.875 0 0 0-.352-.922 1.74 1.74 0 0 0-.637-.63c-.264-.157-.588-.235-.974-.235-.342 0-.64.059-.894.176a1.934 1.934 0 0 0-.637.476c-.176.195-.32.42-.432.674a3.926 3.926 0 0 0-.242.776v1.765c.079.342.206.672.381.989a2.3 2.3 0 0 0 .718.769c.303.2.676.301 1.121.301.366 0 .678-.074.937-.22.264-.152.476-.359.637-.623a2.92 2.92 0 0 0 .367-.915 5.07 5.07 0 0 0 .117-1.114Zm8.271 2.337v-9.712h1.362V615h-1.245l-.117-1.538Zm-5.332-2.337v-.153c0-.606.073-1.155.22-1.648.151-.498.364-.926.637-1.282a2.8 2.8 0 0 1 2.278-1.113c.498 0 .932.088 1.304.263.375.171.693.423.952.755.263.327.471.722.622 1.186.152.464.257.989.315 1.575v.674a6.93 6.93 0 0 1-.315 1.567c-.151.464-.359.86-.622 1.187a2.618 2.618 0 0 1-.952.754c-.376.171-.816.256-1.319.256-.464 0-.889-.1-1.274-.3a3.005 3.005 0 0 1-.989-.842 4.098 4.098 0 0 1-.637-1.275 5.588 5.588 0 0 1-.22-1.604Zm1.362-.153v.153c0 .396.039.767.118 1.114.083.346.209.652.38.915.171.264.389.471.652.623.264.146.579.22.945.22.449 0 .818-.096 1.106-.286a2.13 2.13 0 0 0 .703-.754 4.32 4.32 0 0 0 .41-1.019v-1.765a3.9 3.9 0 0 0-.256-.776 2.372 2.372 0 0 0-.425-.674 1.836 1.836 0 0 0-.637-.476 2.065 2.065 0 0 0-.886-.176c-.371 0-.691.078-.96.235a1.87 1.87 0 0 0-.652.63 2.903 2.903 0 0 0-.38.922 5.008 5.008 0 0 0-.118 1.114Zm9.114-3.897V615h-1.362v-7.925h1.362Zm-1.465-2.102c0-.22.066-.405.198-.556.137-.152.337-.228.6-.228.259 0 .457.076.594.228a.784.784 0 0 1 .212.556c0 .21-.071.391-.212.542-.137.147-.335.22-.594.22-.263 0-.463-.073-.6-.22a.796.796 0 0 1-.198-.542Zm5.195 3.347V615h-1.355v-7.925h1.319l.036 1.245Zm2.476-1.289-.008 1.26a2.002 2.002 0 0 0-.322-.044 3.337 3.337 0 0 0-.337-.015c-.312 0-.588.049-.827.147a1.71 1.71 0 0 0-.608.41 1.985 1.985 0 0 0-.396.63 3.005 3.005 0 0 0-.183.791l-.381.22c0-.479.047-.928.139-1.348.098-.42.247-.791.447-1.113.2-.327.454-.581.762-.762.312-.186.684-.278 1.113-.278.098 0 .21.012.337.036.127.02.215.042.264.066Zm3.283 1.97h.967c.474 0 .864-.078 1.172-.234.312-.161.544-.378.696-.652.156-.278.234-.591.234-.937 0-.41-.068-.755-.205-1.033a1.38 1.38 0 0 0-.615-.63c-.274-.141-.62-.212-1.04-.212-.381 0-.718.075-1.011.227a1.656 1.656 0 0 0-.681.63 1.867 1.867 0 0 0-.242.966h-1.355c0-.542.137-1.035.41-1.479a2.96 2.96 0 0 1 1.15-1.062c.498-.264 1.074-.396 1.729-.396.644 0 1.208.115 1.692.345a2.52 2.52 0 0 1 1.128 1.01c.268.445.402.999.402 1.663 0 .269-.063.557-.19.864a2.554 2.554 0 0 1-.579.85c-.258.264-.595.481-1.01.652-.415.166-.913.249-1.494.249h-1.158v-.821Zm0 1.114v-.813h1.158c.678 0 1.24.08 1.684.241.444.162.794.376 1.047.645.259.269.44.564.542.886.108.318.162.635.162.952 0 .498-.086.94-.257 1.326a2.7 2.7 0 0 1-.71.981 3.018 3.018 0 0 1-1.07.608c-.41.137-.857.205-1.34.205-.464 0-.901-.065-1.311-.197a3.41 3.41 0 0 1-1.077-.572 2.675 2.675 0 0 1-.732-.93 2.92 2.92 0 0 1-.264-1.267h1.355c0 .371.081.696.242.974.166.279.4.496.703.652.308.152.669.227 1.084.227.415 0 .772-.071 1.069-.212.303-.147.535-.366.696-.659.166-.293.249-.662.249-1.106 0-.445-.093-.808-.278-1.092a1.636 1.636 0 0 0-.791-.637c-.337-.141-.735-.212-1.194-.212h-.967Z"/><rect width="219.5" height="35.5" x="120.25" y="644.25" fill="#2688EB" fill-opacity=".2" rx="7.75"/><rect width="219.5" height="35.5" x="120.25" y="644.25" stroke="#2688EB" stroke-linejoin="round" stroke-width=".5" rx="7.75"/><path fill="#000" d="M138.028 665.462v-9.712h1.362V667h-1.245l-.117-1.538Zm-5.332-2.337v-.153c0-.606.073-1.155.22-1.648.151-.498.363-.926.637-1.282a2.8 2.8 0 0 1 2.278-1.113c.498 0 .932.088 1.303.263.376.171.694.423.952.755.264.327.472.722.623 1.186.151.464.256.989.315 1.575v.674a6.93 6.93 0 0 1-.315 1.567c-.151.464-.359.86-.623 1.187a2.601 2.601 0 0 1-.952.754c-.376.171-.815.256-1.318.256-.464 0-.889-.1-1.274-.3a3.005 3.005 0 0 1-.989-.842 4.076 4.076 0 0 1-.637-1.275 5.588 5.588 0 0 1-.22-1.604Zm1.362-.153v.153c0 .396.039.767.117 1.114.083.346.21.652.381.915.171.264.388.471.652.623.264.146.579.22.945.22.449 0 .818-.096 1.106-.286a2.13 2.13 0 0 0 .703-.754c.176-.313.312-.652.41-1.019v-1.765a3.965 3.965 0 0 0-.256-.776 2.395 2.395 0 0 0-.425-.674 1.836 1.836 0 0 0-.637-.476 2.07 2.07 0 0 0-.887-.176c-.371 0-.69.078-.959.235a1.86 1.86 0 0 0-.652.63 2.904 2.904 0 0 0-.381.922 5.07 5.07 0 0 0-.117 1.114Zm9.114-3.897V667h-1.363v-7.925h1.363Zm-1.465-2.102c0-.22.066-.405.198-.556.136-.152.337-.228.6-.228.259 0 .457.076.593.228a.78.78 0 0 1 .213.556c0 .21-.071.391-.213.542-.136.147-.334.22-.593.22-.263 0-.464-.073-.6-.22a.796.796 0 0 1-.198-.542Zm5.195 3.347V667h-1.355v-7.925h1.318l.037 1.245Zm2.476-1.289-.008 1.26a2.017 2.017 0 0 0-.322-.044 3.351 3.351 0 0 0-.337-.015c-.312 0-.588.049-.828.147a1.728 1.728 0 0 0-.608.41 1.983 1.983 0 0 0-.395.63 3.005 3.005 0 0 0-.183.791l-.381.22c0-.479.046-.928.139-1.348.098-.42.247-.791.447-1.113.2-.327.454-.581.762-.762.312-.186.683-.278 1.113-.278.098 0 .21.012.337.036.127.02.215.042.264.066Zm3.283 1.97h.967c.473 0 .864-.078 1.172-.234.312-.161.544-.378.696-.652.156-.278.234-.591.234-.937 0-.41-.068-.755-.205-1.033a1.38 1.38 0 0 0-.615-.63c-.274-.141-.621-.212-1.04-.212-.381 0-.718.075-1.011.227a1.656 1.656 0 0 0-.681.63 1.867 1.867 0 0 0-.242.966h-1.355c0-.542.137-1.035.41-1.479a2.96 2.96 0 0 1 1.15-1.062c.498-.264 1.074-.396 1.729-.396.644 0 1.208.115 1.691.345.484.224.86.561 1.128 1.01.269.445.403.999.403 1.663 0 .269-.063.557-.19.864a2.554 2.554 0 0 1-.579.85 2.988 2.988 0 0 1-1.011.652c-.415.166-.913.249-1.494.249h-1.157v-.821Zm0 1.114v-.813h1.157c.679 0 1.24.08 1.685.241.444.162.793.376 1.047.645.259.269.44.564.542.886.108.318.161.635.161.952 0 .498-.085.94-.256 1.326a2.7 2.7 0 0 1-.71.981c-.303.269-.66.472-1.07.608-.41.137-.857.205-1.34.205-.464 0-.901-.065-1.311-.197a3.41 3.41 0 0 1-1.077-.572 2.675 2.675 0 0 1-.732-.93 2.92 2.92 0 0 1-.264-1.267h1.355c0 .371.081.696.242.974.166.279.4.496.703.652.307.152.669.227 1.084.227.415 0 .771-.071 1.069-.212.303-.147.535-.366.696-.659.166-.293.249-.662.249-1.106 0-.445-.093-.808-.278-1.092a1.64 1.64 0 0 0-.791-.637c-.337-.141-.735-.212-1.194-.212h-.967Z"/></svg>